<?xml version="1.0" encoding="UTF-8" standalone="no"?>
<!-- Created with Inkscape (http://www.inkscape.org/) -->

<svg
   xmlns:dc="http://purl.org/dc/elements/1.1/"
   xmlns:cc="http://creativecommons.org/ns#"
   xmlns:rdf="http://www.w3.org/1999/02/22-rdf-syntax-ns#"
   xmlns:svg="http://www.w3.org/2000/svg"
   xmlns="http://www.w3.org/2000/svg"
   xmlns:xlink="http://www.w3.org/1999/xlink"
   xmlns:sodipodi="http://sodipodi.sourceforge.net/DTD/sodipodi-0.dtd"
   xmlns:inkscape="http://www.inkscape.org/namespaces/inkscape"
   width="42.038776mm"
   height="8.2010498mm"
   viewBox="0 0 42.038776 8.2010498"
   version="1.1"
   id="svg8"
   inkscape:version="0.92.4 (5da689c313, 2019-01-14)"
   sodipodi:docname="adiosluz.svg"
   inkscape:export-filename="C:\work\repos\escape-raquel-jesus\adiosluz\adiosluz.png"
   inkscape:export-xdpi="96"
   inkscape:export-ydpi="96">
  <defs
     id="defs2">
    <linearGradient
       inkscape:collect="always"
       id="linearGradient5277">
      <stop
         style="stop-color:#ffdc00;stop-opacity:1"
         offset="0"
         id="stop5273" />
      <stop
         style="stop-color:#e6007d;stop-opacity:1"
         offset="1"
         id="stop5275" />
    </linearGradient>
    <linearGradient
       inkscape:collect="always"
       xlink:href="#linearGradient5277"
       id="linearGradient5289"
       gradientUnits="userSpaceOnUse"
       x1="51.316406"
       y1="51.263672"
       x2="210.20312"
       y2="51.263672" />
  </defs>
  <sodipodi:namedview
     id="base"
     pagecolor="#ffffff"
     bordercolor="#666666"
     borderopacity="1.0"
     inkscape:pageopacity="0.0"
     inkscape:pageshadow="2"
     inkscape:zoom="1.4"
     inkscape:cx="17.862063"
     inkscape:cy="-65.993848"
     inkscape:document-units="mm"
     inkscape:current-layer="layer1"
     showgrid="false"
     fit-margin-top="0"
     fit-margin-left="0"
     fit-margin-right="0"
     fit-margin-bottom="0"
     inkscape:window-width="1920"
     inkscape:window-height="986"
     inkscape:window-x="-11"
     inkscape:window-y="-11"
     inkscape:window-maximized="1" />
  <metadata
     id="metadata5">
    <rdf:RDF>
      <cc:Work
         rdf:about="">
        <dc:format>image/svg+xml</dc:format>
        <dc:type
           rdf:resource="http://purl.org/dc/dcmitype/StillImage" />
        <dc:title />
      </cc:Work>
    </rdf:RDF>
  </metadata>
  <g
     inkscape:label="Layer 1"
     inkscape:groupmode="layer"
     id="layer1"
     transform="translate(-13.577466,-9.4629882)">
    <path
       style="font-style:normal;font-weight:normal;font-size:40px;line-height:1.25;font-family:sans-serif;letter-spacing:0px;word-spacing:0px;fill:url(#linearGradient5289);fill-opacity:1;stroke:none"
       d="m 90.984375,35.765625 v 9.453125 c -0.976562,-0.507812 -1.907552,-0.878906 -2.792969,-1.113281 -0.885416,-0.247396 -1.901041,-0.371094 -3.046875,-0.371094 -1.263021,0 -2.486979,0.260417 -3.671875,0.78125 -1.171875,0.520833 -2.200521,1.276042 -3.085937,2.265625 -0.898438,1.015625 -1.614584,2.246094 -2.148438,3.691406 -0.305747,0.848449 -0.510456,1.77417 -0.636719,2.761719 h 3.791016 c 0.233751,-1.634839 0.753598,-2.968852 1.572266,-3.992187 1.145833,-1.432292 2.747396,-2.148438 4.804687,-2.148438 0.924479,0 1.777344,0.08463 2.558594,0.253906 0.78125,0.169271 1.666667,0.475261 2.65625,0.917969 v 4.96875 h 3.671875 v -17.46875 z m 67.109375,0 v 17.46875 h 3.67187 V 35.765625 Z M 101.6875,36.878906 V 40.6875 h 4.14062 v -3.808594 z m 19.74609,6.855469 c -3.08593,0 -5.54036,1.035156 -7.36328,3.105469 -1.45002,1.648225 -2.30934,3.785185 -2.59765,6.394531 h 3.77929 c 0.2082,-1.82525 0.7192,-3.24812 1.53321,-4.265625 1.10677,-1.380208 2.65625,-2.070312 4.64843,-2.070312 1.96615,0 3.50261,0.690104 4.60938,2.070312 0.8237,1.017508 1.34011,2.440368 1.55078,4.265625 h 3.7793 c -0.2904,-2.609309 -1.1548,-4.746323 -2.61524,-6.394531 -1.82291,-2.070313 -4.26432,-3.105469 -7.32422,-3.105469 z M 60.359375,43.8125 c -1.315104,0 -2.64974,0.117188 -4.003906,0.351562 -1.354167,0.234375 -2.389323,0.449219 -3.105469,0.644532 v 3.730468 h 0.195312 c 1.263021,-0.48177 2.48698,-0.846354 3.671876,-1.09375 1.184895,-0.260416 2.259114,-0.390624 3.222656,-0.390624 0.794271,0 1.555989,0.05208 2.285156,0.15625 0.729167,0.104166 1.354167,0.305989 1.875,0.605468 0.546875,0.3125 0.963542,0.742188 1.25,1.289063 0.299479,0.546875 0.449219,1.236979 0.449219,2.070312 v 0.566407 c -2.135417,0.104166 -4.134115,0.260416 -5.996094,0.46875 -1.66879,0.186717 -3.111594,0.533407 -4.351563,1.023437 h 14 v -1.882813 c 0,-1.406249 -0.214843,-2.584635 -0.644531,-3.535156 -0.429687,-0.950521 -1.054687,-1.72526 -1.875,-2.324218 -0.833333,-0.61198 -1.822916,-1.041667 -2.96875,-1.289063 C 63.230469,43.942708 61.895833,43.8125 60.359375,43.8125 Z m 84.277345,0 c -1.39323,0 -2.65625,0.182292 -3.78906,0.546875 -1.1198,0.351562 -2.04427,0.833333 -2.77344,1.445313 -0.75521,0.624999 -1.32162,1.334635 -1.69922,2.128906 -0.36458,0.794271 -0.54688,1.640625 -0.54688,2.539062 0,1.038646 0.21514,1.955877 0.63282,2.761719 h 7.12304 c -0.16025,-0.03516 -0.35742,-0.07031 -0.50976,-0.105469 -1.22396,-0.286458 -2.10938,-0.657552 -2.65625,-1.113281 -0.5599,-0.455729 -0.83985,-1.132813 -0.83985,-2.03125 10e-6,-1.015625 0.46224,-1.777344 1.38672,-2.285156 0.92448,-0.520834 2.0573,-0.78125 3.39844,-0.78125 1.28906,0 2.60417,0.240885 3.94531,0.722656 1.34115,0.46875 2.48047,1.048177 3.41797,1.738281 h 0.19532 v -3.925781 c -0.88542,-0.455729 -1.9987,-0.839844 -3.33985,-1.152344 C 147.25391,43.97526 145.9388,43.8125 144.63672,43.8125 Z m -42.71484,0.527344 v 8.894531 h 3.67187 v -8.894531 z m 66.99218,0 v 8.894531 h 3.67188 v -8.894531 z m 14.57032,0 v 8.894531 h 3.67187 v -8.894531 z m 9.375,0 v 3.066406 h 12.4414 l -4.62109,5.828125 h 4.20898 l 4.98242,-6.277344 V 44.339844 Z M 51.853516,56.804688 c -0.351883,0.850535 -0.53711,1.853601 -0.53711,3.023437 0,2.018229 0.683594,3.678385 2.050782,4.980469 1.367187,1.302083 3.033854,1.953125 5,1.953125 1.067708,0 1.998697,-0.104167 2.792968,-0.3125 0.794271,-0.195313 1.497396,-0.442709 2.109375,-0.742188 0.520834,-0.234375 1.054688,-0.546875 1.601563,-0.9375 0.559896,-0.403646 1.002604,-0.716146 1.328125,-0.9375 v 2.324219 h 3.652343 v -9.351562 h -3.652343 v 3.980468 c -0.911459,0.703125 -1.901042,1.308594 -2.96875,1.816406 -1.067709,0.494792 -2.246094,0.742188 -3.535157,0.742188 -1.549479,0 -2.701822,-0.3125 -3.457031,-0.9375 -0.755208,-0.638021 -1.132812,-1.582031 -1.132812,-2.832031 0,-1.106771 0.325521,-1.972657 0.976562,-2.597657 0.06242,-0.06117 0.135047,-0.113819 0.201172,-0.171874 z m 23.646484,0 c 0.177433,2.895828 0.923776,5.213873 2.242188,6.949218 1.536458,2.005209 3.60677,3.007813 6.210937,3.007813 1.341146,0 2.584635,-0.253907 3.730469,-0.761719 1.145833,-0.507812 2.246094,-1.217448 3.300781,-2.128906 v 2.285156 h 3.671875 v -9.351562 h -3.671875 v 3.980468 c -0.924479,0.729167 -1.920573,1.328125 -2.988281,1.796875 -1.067709,0.455729 -2.122396,0.683594 -3.164063,0.683594 -1.953125,0 -3.372396,-0.670573 -4.257812,-2.011719 -0.707384,-1.081881 -1.119484,-2.577791 -1.261719,-4.449218 z m 26.42188,0 v 9.351562 h 3.67187 v -9.351562 z m 9.50195,0 c 0.23131,2.828575 1.10885,5.123285 2.64648,6.871093 1.82292,2.057292 4.27735,3.085938 7.36328,3.085938 3.0599,0 5.50131,-1.028646 7.32422,-3.085938 1.5487,-1.747816 2.43305,-4.042498 2.66602,-6.871093 h -3.79297 c -0.17738,2.001139 -0.70862,3.5744 -1.60742,4.703124 -1.10677,1.39323 -2.63672,2.089844 -4.58985,2.089844 -1.97916,0 -3.52213,-0.703125 -4.6289,-2.109375 -0.88651,-1.136817 -1.41147,-2.703032 -1.58789,-4.683593 z m 31.80469,0 c 0.057,0.01094 0.10051,0.02434 0.1582,0.03516 0.84635,0.15625 1.52995,0.292969 2.05078,0.410156 1.40625,0.3125 2.35677,0.690104 2.85156,1.132812 0.49479,0.442709 0.74219,1.093751 0.74219,1.953126 0,1.119791 -0.45573,1.940104 -1.36719,2.460937 -0.91146,0.520833 -2.17448,0.78125 -3.78906,0.78125 -1.30208,0 -2.66276,-0.253906 -4.08203,-0.761719 -1.41927,-0.520833 -2.70833,-1.217448 -3.86719,-2.089844 h -0.19531 v 4.121094 c 0.91146,0.455729 2.03776,0.878907 3.37891,1.269532 1.35416,0.377604 2.83854,0.566406 4.45312,0.566406 2.85156,0 5.09766,-0.638021 6.73828,-1.914063 1.65365,-1.276041 2.48047,-2.910156 2.48047,-4.902343 0,-1.19925 -0.26608,-2.219457 -0.79297,-3.0625 z m 14.86523,0 v 9.351562 h 3.67187 v -9.351562 z m 10.82031,0 V 58.5 c 0,2.708333 0.63802,4.765625 1.91406,6.171875 1.27605,1.393229 3.0599,2.089844 5.35157,2.089844 1.36718,0 2.61719,-0.260417 3.75,-0.78125 1.13281,-0.520834 2.31771,-1.269532 3.55469,-2.246094 v 2.421875 h 3.67187 v -9.351562 h -3.67187 v 3.824218 c -0.97657,0.768229 -2.03126,1.39974 -3.16407,1.894532 -1.11979,0.494791 -2.15495,0.742187 -3.10547,0.742187 -1.0677,0 -1.88151,-0.130208 -2.4414,-0.390625 -0.5599,-0.260417 -1.01563,-0.677083 -1.36719,-1.25 -0.33854,-0.559896 -0.5599,-1.230469 -0.66406,-2.011719 -0.10272,-0.783205 -0.15287,-1.721534 -0.1543,-2.808593 z m 28.9336,0 -5.26172,6.636718 v 2.714844 h 17.61718 v -3.105469 h -13.10546 l 4.95703,-6.246093 z"
       transform="scale(0.26458333)"
       id="flowRoot10"
       inkscape:connector-curvature="0" />
  </g>
</svg>
