<?xml version="1.0" encoding="UTF-8" standalone="no"?>
<!-- Created with Inkscape (http://www.inkscape.org/) -->

<svg
   xmlns:dc="http://purl.org/dc/elements/1.1/"
   xmlns:cc="http://creativecommons.org/ns#"
   xmlns:rdf="http://www.w3.org/1999/02/22-rdf-syntax-ns#"
   xmlns:svg="http://www.w3.org/2000/svg"
   xmlns="http://www.w3.org/2000/svg"
   xmlns:xlink="http://www.w3.org/1999/xlink"
   xmlns:sodipodi="http://sodipodi.sourceforge.net/DTD/sodipodi-0.dtd"
   xmlns:inkscape="http://www.inkscape.org/namespaces/inkscape"
   width="192"
   height="192"
   viewBox="0 0 50.799999 50.800001"
   version="1.1"
   id="svg5297"
   inkscape:version="0.92.4 (5da689c313, 2019-01-14)"
   sodipodi:docname="favicon.svg"
   inkscape:export-filename="C:\work\repos\adiosluz\favicon.png"
   inkscape:export-xdpi="96"
   inkscape:export-ydpi="96">
  <defs
     id="defs5291">
    <linearGradient
       inkscape:collect="always"
       id="linearGradient5854">
      <stop
         style="stop-color:#ffdc00;stop-opacity:1"
         offset="0"
         id="stop5850" />
      <stop
         style="stop-color:#e6007d;stop-opacity:1"
         offset="1"
         id="stop5852" />
    </linearGradient>
    <linearGradient
       inkscape:collect="always"
       xlink:href="#linearGradient5854"
       id="linearGradient5856"
       x1="26.058779"
       y1="60.208595"
       x2="76.85878"
       y2="60.208595"
       gradientUnits="userSpaceOnUse"
       gradientTransform="scale(3.7795276)" />
  </defs>
  <sodipodi:namedview
     id="base"
     pagecolor="#ffffff"
     bordercolor="#666666"
     borderopacity="1.0"
     inkscape:pageopacity="0.0"
     inkscape:pageshadow="2"
     inkscape:zoom="0.98994949"
     inkscape:cx="155.9024"
     inkscape:cy="-88.014793"
     inkscape:document-units="mm"
     inkscape:current-layer="layer1"
     showgrid="false"
     units="px"
     fit-margin-top="0"
     fit-margin-left="0"
     fit-margin-right="0"
     fit-margin-bottom="0"
     inkscape:window-width="1920"
     inkscape:window-height="986"
     inkscape:window-x="-11"
     inkscape:window-y="-11"
     inkscape:window-maximized="1" />
  <metadata
     id="metadata5294">
    <rdf:RDF>
      <cc:Work
         rdf:about="">
        <dc:format>image/svg+xml</dc:format>
        <dc:type
           rdf:resource="http://purl.org/dc/dcmitype/StillImage" />
        <dc:title></dc:title>
      </cc:Work>
    </rdf:RDF>
  </metadata>
  <g
     inkscape:label="Layer 1"
     inkscape:groupmode="layer"
     id="layer1"
     transform="translate(-26.058874,-34.808728)">
    <path
       style="fill:url(#linearGradient5856);fill-opacity:1;stroke-width:0.99999994"
       d="m 98.490234,131.56055 v 192 H 290.49023 v -192 z m 91.666016,42.30664 c 7.42028,0 13.86506,0.62905 19.33594,1.88672 5.53376,1.19479 10.31334,3.26908 14.33789,6.22461 3.96167,2.89265 6.97952,6.63409 9.05469,11.2246 2.07516,4.59051 3.11328,10.28278 3.11328,17.07422 v 11.1875 h -72.32813 c 0.84747,-0.44737 1.71472,-0.87937 2.6211,-1.2832 6.41413,-2.82977 14.11895,-4.74777 23.11132,-5.75391 8.99236,-1.00614 18.64411,-1.7606 28.95704,-2.26367 v -2.73633 c 0,-4.02455 -0.72361,-7.35692 -2.16993,-9.99804 -1.38344,-2.64111 -3.396,-4.71735 -6.03711,-6.22657 -2.51535,-1.44631 -5.5332,-2.42075 -9.05468,-2.92382 -3.5215,-0.50309 -7.19925,-0.75391 -11.03516,-0.75391 -4.65339,0 -9.84203,0.62905 -15.56445,1.88672 -5.72242,1.19479 -11.6327,2.95455 -17.73243,5.28125 h -0.94335 v -18.01563 c 3.4586,-0.94326 8.45813,-1.98137 14.99804,-3.11328 6.5399,-1.13191 12.98469,-1.69726 19.33594,-1.69726 z m -41.86328,64.76953 h 20.09375 c -2.40309,2.89463 -3.60352,6.67863 -3.60352,11.35156 0,6.03683 1.82346,10.59448 5.47071,13.67578 3.64725,3.01841 9.21215,4.5293 16.69531,4.5293 6.22549,0 11.91581,-1.19636 17.07226,-3.58594 5.15647,-2.45247 9.93603,-5.37576 14.3379,-8.77148 v -17.19922 h 17.63867 v 43.13867 h -17.63867 v -11.22461 c -1.5721,1.06902 -3.71008,2.57796 -6.41407,4.52734 -2.64112,1.88651 -5.21903,3.39545 -7.73437,4.52735 -2.95553,1.44633 -6.35159,2.64072 -10.1875,3.58398 -3.8359,1.00614 -8.33183,1.50977 -13.48828,1.50977 -9.49544,0 -17.54565,-3.14327 -24.14844,-9.43164 -6.60278,-6.28836 -9.90234,-14.30577 -9.90234,-24.05274 0,-4.73962 0.61258,-8.92377 1.80859,-12.57812 z"
       transform="scale(0.26458333)"
       id="rect5303"
       inkscape:connector-curvature="0" />
  </g>
</svg>
