<?xml version="1.0" encoding="utf-8"?>
<!-- Generator: Adobe Illustrator 23.0.2, SVG Export Plug-In . SVG Version: 6.00 Build 0)  -->
<svg version="1.1" id="Capa_1" xmlns="http://www.w3.org/2000/svg" xmlns:xlink="http://www.w3.org/1999/xlink" x="0px" y="0px"
	 viewBox="0 0 70 72" style="enable-background:new 0 0 70 72;" xml:space="preserve">
<style type="text/css">
	.st0{fill-rule:evenodd;clip-rule:evenodd;fill:#21865B;}
	.st1{fill:#FFFFFF;}
	.st2{fill-rule:evenodd;clip-rule:evenodd;fill:#1F6D4A;}
</style>
<g id="Symbols">
	<g transform="translate(-1189.000000, -12.000000)">
		<g transform="translate(1189.000000, 12.000000)">
			<g id="Group-4">
				<g id="ico-luz-verde-v-a65be349-copy">
					<rect id="Rectangle" class="st0" width="70" height="36"/>
					<path id="Shape" class="st1" d="M51.4,10.9V9.1c0-1.2-0.7-2.1-2.1-2.1s-2.1,0.9-2.1,2.1v1.9c0,1.2,0.7,2.1,2.1,2.1
						C50.7,13,51.4,12.1,51.4,10.9z M48.6,10.9V9.1c0-0.5,0.2-0.8,0.7-0.8S50,8.7,50,9.1v1.8c0,0.5-0.2,0.8-0.7,0.8
						C48.8,11.7,48.6,11.4,48.6,10.9z M55.9,13c-1.4,0-2.1,0.9-2.1,2.1v1.9c0,1.2,0.7,2.1,2.1,2.1c1.3,0,2.1-0.9,2.1-2.1V15
						C58,13.8,57.3,13,55.9,13z M56.6,16.8c0,0.5-0.2,0.8-0.7,0.8s-0.7-0.3-0.7-0.8v-1.8c0-0.5,0.2-0.8,0.7-0.8s0.7,0.3,0.7,0.8
						V16.8z M56.7,7.2h-1.6l-3.2,5.7l-3.3,5.8h1.6l3.2-5.8L56.7,7.2z M17.7,7.3l-5.7,1V10h2.7v8.9h2.9V7.3z M24.1,18.4v-6.2
						c0-1.4,0.8-2.4,2.2-2.4c1.4,0,2.2,1,2.2,2.4v6.1c0,0.2,0,0.4,0,0.6h3c0-0.2,0-0.3,0-0.6v-6.2C31.6,9,29.4,7,26.4,7
						c-3.3,0-5.2,2-5.2,5.1v6.3c0,0.2,0,0.4,0,0.6h3C24.2,18.7,24.1,18.6,24.1,18.4z M37.4,18.4v-6.2c0-1.4,0.8-2.4,2.2-2.4
						s2.2,1,2.2,2.4v6.1c0,0.2,0,0.4,0,0.6h3c0-0.2,0-0.3,0-0.6v-6.2C44.8,9,42.7,7,39.6,7c-3.3,0-5.2,2-5.2,5.1v6.3
						c0,0.2,0,0.4,0,0.6h3C37.4,18.7,37.4,18.6,37.4,18.4z"/>
					<path class="st1" d="M16.5,22v7.9H15V22H16.5z M18.2,24.2h1.5v3.7c0,0.5,0.3,0.9,0.8,0.9c0.6,0,1-0.4,1-1v-3.6h1.5v5.7h-1.3
						l-0.1-0.6c-0.3,0.4-0.8,0.6-1.5,0.6c-1.3,0-1.9-0.9-1.9-2V24.2z M24.4,24.2h4.3V25l-2.5,3.8h2.6v1.1h-4.5v-0.8l2.6-3.7h-2.4
						V24.2z M34.6,29.9l-1.9-5.7h1.6l1.1,3.9l1.1-3.9H38l-1.9,5.7H34.6z M43.2,27.9L43.2,27.9c0,1.3-0.9,2.1-2.3,2.1
						c-1.4,0-2.4-0.9-2.4-2.3v-1.4c0-1.4,1-2.3,2.4-2.3c1.3,0,2.3,0.9,2.3,2.3v0.9h-3.3v0.6c0,0.6,0.4,1,1,1s0.9-0.4,0.9-0.9v-0.1
						H43.2z M39.9,26.3h1.9v-0.1c0-0.6-0.3-1-0.9-1c-0.6,0-1,0.4-1,1V26.3z M44.5,29.9v-5.7h1.3l0.1,0.6c0.3-0.4,0.8-0.8,1.3-0.8
						c0.1,0,0.2,0,0.3,0v1.3c-0.1,0-0.3,0-0.5,0c-0.6,0-1.1,0.3-1.1,1v3.5H44.5z M51.8,29.4C51.5,29.8,51,30,50.4,30
						c-1.3,0-2-0.9-2-2.2v-1.5c0-1.3,0.7-2.2,2-2.2c0.6,0,1.1,0.2,1.3,0.6V22h1.5v7.9H52L51.8,29.4z M51.8,27.8v-1.5
						c0-0.6-0.4-1-1-1s-0.9,0.4-0.9,1v1.5c0,0.6,0.3,1,0.9,1C51.4,28.8,51.8,28.3,51.8,27.8z M59,27.9L59,27.9
						c0,1.3-0.9,2.1-2.3,2.1c-1.4,0-2.4-0.9-2.4-2.3v-1.4c0-1.4,1-2.3,2.4-2.3c1.3,0,2.3,0.9,2.3,2.3v0.9h-3.3v0.6c0,0.6,0.4,1,1,1
						s0.9-0.4,0.9-0.9v-0.1H59z M55.7,26.3h1.9v-0.1c0-0.6-0.3-1-0.9-1c-0.6,0-1,0.4-1,1V26.3z"/>
				</g>
			</g>
		</g>
	</g>
</g>
<g id="Page-1">
	<g id="ico-green-energy-hover">
		<rect id="Rectangle_1_" y="36" class="st2" width="70" height="36"/>
		<path id="Shape_1_" class="st1" d="M51.4,46.9v-1.8c0-1.2-0.7-2.1-2.1-2.1s-2.1,0.9-2.1,2.1V47c0,1.2,0.7,2.1,2.1,2.1
			C50.7,49,51.4,48.1,51.4,46.9z M48.6,46.9v-1.8c0-0.5,0.2-0.8,0.7-0.8s0.7,0.4,0.7,0.8v1.8c0,0.5-0.2,0.8-0.7,0.8
			S48.6,47.4,48.6,46.9z M55.9,49c-1.4,0-2.1,0.9-2.1,2.1V53c0,1.2,0.7,2.1,2.1,2.1c1.3,0,2.1-0.9,2.1-2.1v-2
			C58,49.8,57.3,49,55.9,49z M56.6,52.8c0,0.5-0.2,0.8-0.7,0.8s-0.7-0.3-0.7-0.8V51c0-0.5,0.2-0.8,0.7-0.8s0.7,0.3,0.7,0.8V52.8z
			 M56.7,43.2h-1.6l-3.2,5.7l-3.3,5.8h1.6l3.2-5.8L56.7,43.2z M17.7,43.3l-5.7,1V46h2.7v8.9h2.9V43.3H17.7z M24.1,54.4v-6.2
			c0-1.4,0.8-2.4,2.2-2.4c1.4,0,2.2,1,2.2,2.4v6.1c0,0.2,0,0.4,0,0.6h3c0-0.2,0-0.3,0-0.6v-6.2c0.1-3.1-2.1-5.1-5.1-5.1
			c-3.3,0-5.2,2-5.2,5.1v6.3c0,0.2,0,0.4,0,0.6h3C24.2,54.7,24.1,54.6,24.1,54.4z M37.4,54.4v-6.2c0-1.4,0.8-2.4,2.2-2.4
			s2.2,1,2.2,2.4v6.1c0,0.2,0,0.4,0,0.6h3c0-0.2,0-0.3,0-0.6v-6.2c0-3.1-2.1-5.1-5.2-5.1c-3.3,0-5.2,2-5.2,5.1v6.3
			c0,0.2,0,0.4,0,0.6h3C37.4,54.7,37.4,54.6,37.4,54.4z"/>
		<path class="st1" d="M16.5,58v7.9H15V58H16.5z M18.2,60.2h1.5v3.7c0,0.5,0.3,0.9,0.8,0.9c0.6,0,1-0.4,1-1v-3.6H23v5.7h-1.3
			l-0.1-0.6c-0.3,0.4-0.8,0.6-1.5,0.6c-1.3,0-1.9-0.9-1.9-2V60.2z M24.4,60.2h4.3V61l-2.5,3.8h2.6v1.1h-4.5v-0.8l2.6-3.7h-2.4v-1.2
			C24.5,60.2,24.4,60.2,24.4,60.2z M34.6,65.9l-1.9-5.7h1.6l1.1,3.9l1.1-3.9H38l-1.9,5.7C36.1,65.9,34.6,65.9,34.6,65.9z M43.2,63.9
			L43.2,63.9c0,1.3-0.9,2.1-2.3,2.1c-1.4,0-2.4-0.9-2.4-2.3v-1.4c0-1.4,1-2.3,2.4-2.3c1.3,0,2.3,0.9,2.3,2.3v0.9h-3.3v0.6
			c0,0.6,0.4,1,1,1s0.9-0.4,0.9-0.9v-0.1L43.2,63.9L43.2,63.9z M39.9,62.3h1.9v-0.1c0-0.6-0.3-1-0.9-1c-0.6,0-1,0.4-1,1V62.3z
			 M44.5,65.9v-5.7h1.3l0.1,0.6c0.3-0.4,0.8-0.8,1.3-0.8c0.1,0,0.2,0,0.3,0v1.3c-0.1,0-0.3,0-0.5,0c-0.6,0-1.1,0.3-1.1,1v3.5
			L44.5,65.9L44.5,65.9z M51.8,65.4C51.5,65.8,51,66,50.4,66c-1.3,0-2-0.9-2-2.2v-1.5c0-1.3,0.7-2.2,2-2.2c0.6,0,1.1,0.2,1.3,0.6V58
			h1.5v7.9H52L51.8,65.4z M51.8,63.8v-1.5c0-0.6-0.4-1-1-1s-0.9,0.4-0.9,1v1.5c0,0.6,0.3,1,0.9,1S51.8,64.3,51.8,63.8z M59,63.9
			L59,63.9c0,1.3-0.9,2.1-2.3,2.1c-1.4,0-2.4-0.9-2.4-2.3v-1.4c0-1.4,1-2.3,2.4-2.3c1.3,0,2.3,0.9,2.3,2.3v0.9h-3.3v0.6
			c0,0.6,0.4,1,1,1s0.9-0.4,0.9-0.9v-0.1L59,63.9L59,63.9z M55.7,62.3h1.9v-0.1c0-0.6-0.3-1-0.9-1c-0.6,0-1,0.4-1,1V62.3z"/>
	</g>
</g>
</svg>
